<mxfile host="app.diagrams.net" modified="2022-09-23T10:27:27.673Z" agent="5.0 (Macintosh; Intel Mac OS X 10_15_7) AppleWebKit/537.36 (KHTML, like Gecko) Chrome/105.0.0.0 Safari/537.36" etag="WBlXtmmR_h9ktblGbPTr" version="20.3.6" type="github">
  <diagram id="NRDczyopsmSG00Yal9IX" name="Page-1">
    <mxGraphModel dx="1577" dy="803" grid="1" gridSize="10" guides="1" tooltips="1" connect="1" arrows="1" fold="1" page="1" pageScale="1" pageWidth="827" pageHeight="1169" math="0" shadow="0">
      <root>
        <mxCell id="0" />
        <mxCell id="1" parent="0" />
        <mxCell id="Zlo0n6DpYMuALqp4g13X-1" value="ERP" style="swimlane;html=1;startSize=20;fontStyle=0;collapsible=0;horizontal=0;swimlaneLine=1;swimlaneFillColor=#ffffff;strokeWidth=2;" vertex="1" parent="1">
          <mxGeometry x="90" y="120" width="1000" height="270" as="geometry" />
        </mxCell>
        <mxCell id="Zlo0n6DpYMuALqp4g13X-2" value="" style="edgeStyle=orthogonalEdgeStyle;rounded=0;orthogonalLoop=1;jettySize=auto;html=1;" edge="1" parent="Zlo0n6DpYMuALqp4g13X-1" source="Zlo0n6DpYMuALqp4g13X-3" target="Zlo0n6DpYMuALqp4g13X-5">
          <mxGeometry relative="1" as="geometry" />
        </mxCell>
        <mxCell id="Zlo0n6DpYMuALqp4g13X-3" value="" style="points=[[0.145,0.145,0],[0.5,0,0],[0.855,0.145,0],[1,0.5,0],[0.855,0.855,0],[0.5,1,0],[0.145,0.855,0],[0,0.5,0]];shape=mxgraph.bpmn.event;html=1;verticalLabelPosition=bottom;labelBackgroundColor=#ffffff;verticalAlign=top;align=center;perimeter=ellipsePerimeter;outlineConnect=0;aspect=fixed;outline=standard;symbol=general;" vertex="1" parent="Zlo0n6DpYMuALqp4g13X-1">
          <mxGeometry x="40" y="110" width="50" height="50" as="geometry" />
        </mxCell>
        <mxCell id="Zlo0n6DpYMuALqp4g13X-4" value="" style="edgeStyle=orthogonalEdgeStyle;rounded=0;orthogonalLoop=1;jettySize=auto;html=1;" edge="1" parent="Zlo0n6DpYMuALqp4g13X-1" source="Zlo0n6DpYMuALqp4g13X-5" target="Zlo0n6DpYMuALqp4g13X-7">
          <mxGeometry relative="1" as="geometry" />
        </mxCell>
        <mxCell id="Zlo0n6DpYMuALqp4g13X-5" value="New customer order" style="rounded=1;whiteSpace=wrap;html=1;verticalAlign=middle;fillColor=rgb(255, 255, 255);strokeColor=rgb(0, 0, 0);fontColor=rgb(0, 0, 0);labelBackgroundColor=#ffffff;" vertex="1" parent="Zlo0n6DpYMuALqp4g13X-1">
          <mxGeometry x="135" y="105" width="120" height="60" as="geometry" />
        </mxCell>
        <mxCell id="Zlo0n6DpYMuALqp4g13X-6" value="" style="edgeStyle=orthogonalEdgeStyle;rounded=0;orthogonalLoop=1;jettySize=auto;html=1;" edge="1" parent="Zlo0n6DpYMuALqp4g13X-1" source="Zlo0n6DpYMuALqp4g13X-7" target="Zlo0n6DpYMuALqp4g13X-9">
          <mxGeometry relative="1" as="geometry" />
        </mxCell>
        <mxCell id="Zlo0n6DpYMuALqp4g13X-7" value="Send order in OrderCycle" style="rounded=1;whiteSpace=wrap;html=1;verticalAlign=middle;fillColor=rgb(255, 255, 255);strokeColor=rgb(0, 0, 0);fontColor=rgb(0, 0, 0);labelBackgroundColor=#ffffff;" vertex="1" parent="Zlo0n6DpYMuALqp4g13X-1">
          <mxGeometry x="335" y="105" width="120" height="60" as="geometry" />
        </mxCell>
        <mxCell id="Zlo0n6DpYMuALqp4g13X-8" value="" style="edgeStyle=orthogonalEdgeStyle;rounded=0;orthogonalLoop=1;jettySize=auto;html=1;" edge="1" parent="Zlo0n6DpYMuALqp4g13X-1" source="Zlo0n6DpYMuALqp4g13X-9" target="Zlo0n6DpYMuALqp4g13X-11">
          <mxGeometry relative="1" as="geometry" />
        </mxCell>
        <mxCell id="Zlo0n6DpYMuALqp4g13X-9" value="Picking order in WMS" style="rounded=1;whiteSpace=wrap;html=1;verticalAlign=middle;fillColor=rgb(255, 255, 255);strokeColor=rgb(0, 0, 0);fontColor=rgb(0, 0, 0);labelBackgroundColor=#ffffff;" vertex="1" parent="Zlo0n6DpYMuALqp4g13X-1">
          <mxGeometry x="535" y="105" width="120" height="60" as="geometry" />
        </mxCell>
        <mxCell id="Zlo0n6DpYMuALqp4g13X-15" value="" style="edgeStyle=orthogonalEdgeStyle;rounded=0;orthogonalLoop=1;jettySize=auto;html=1;" edge="1" parent="Zlo0n6DpYMuALqp4g13X-1" source="Zlo0n6DpYMuALqp4g13X-11" target="Zlo0n6DpYMuALqp4g13X-14">
          <mxGeometry relative="1" as="geometry" />
        </mxCell>
        <mxCell id="Zlo0n6DpYMuALqp4g13X-11" value="Get fact" style="rounded=1;whiteSpace=wrap;html=1;verticalAlign=middle;fillColor=rgb(255, 255, 255);strokeColor=rgb(0, 0, 0);fontColor=rgb(0, 0, 0);labelBackgroundColor=#ffffff;" vertex="1" parent="Zlo0n6DpYMuALqp4g13X-1">
          <mxGeometry x="735" y="105" width="120" height="60" as="geometry" />
        </mxCell>
        <mxCell id="Zlo0n6DpYMuALqp4g13X-14" value="" style="points=[[0.145,0.145,0],[0.5,0,0],[0.855,0.145,0],[1,0.5,0],[0.855,0.855,0],[0.5,1,0],[0.145,0.855,0],[0,0.5,0]];shape=mxgraph.bpmn.event;html=1;verticalLabelPosition=bottom;labelBackgroundColor=#ffffff;verticalAlign=top;align=center;perimeter=ellipsePerimeter;outlineConnect=0;aspect=fixed;outline=end;symbol=terminate2;" vertex="1" parent="Zlo0n6DpYMuALqp4g13X-1">
          <mxGeometry x="910" y="110" width="50" height="50" as="geometry" />
        </mxCell>
      </root>
    </mxGraphModel>
  </diagram>
</mxfile>
